<svg xmlns="http://www.w3.org/2000/svg" viewBox="0 0 1760.93 515.85"><g id="Camada_2" data-name="Camada 2"><g id="Camada_1-2" data-name="Camada 1"><path d="M218.43,264.35a12,12,0,0,0,5.5.5,7.46,7.46,0,0,0,2.95-.93,7.78,7.78,0,0,0,3.05-4.07c3-8,16-41,18-54s0-15.57,0-15.57,2-4.43-19-10.43-74-13-123,19c-8.38,5.47-19.8,13.87-29.74,28.94-15.6,23.63-16.54,48.07-16.26,59.06,4.1,29.94,15.46,45.94,25,55,16.56,15.74,40.22,22.53,75,45,4.06,2.62,17.37,11.45,19.27,23.94a33.25,33.25,0,0,1-.27,10.06c-.57,2.88-1.86,9.43-7,14a23.33,23.33,0,0,1-15,8,92.4,92.4,0,0,1-25-1,94.76,94.76,0,0,1-43-20c-3.44-2.38-6.49-4.38-9-6-5.36-3.45-7-4.3-9-4-3,.45-4.89,3.28-6,5a203.47,203.47,0,0,0-17,32h0l-6,16c-1,3-2.18,8.12,0,13,1.93,4.32,5.52,6.25,12,10,17.42,10.07,13.26,8.7,20,12a158.9,158.9,0,0,0,35,12c26.46,5.83,50.58,4.17,66,2a93,93,0,0,0,48-20c26.28-21.38,31.8-50.43,33-58,.06-13.81-1.27-53.67-24-77-12.87-13.21-43.3-32.09-51.12-36.51l-.88-.49c-18.09-9.76-23-13-23-13-11.14-7.34-16.71-11-20-18-1.09-2.32-5.68-12-1-22,2.91-6.2,8.41-9.32,12.92-11.91a46.64,46.64,0,0,1,14.08-5.09c10.07-2,18.22-.35,25,1a92.51,92.51,0,0,1,14,4A111.68,111.68,0,0,1,218.43,264.35Z" style="fill:#0cacb3"/><path d="M423.24,292.41c-15.68-47.43-51.31-58.56-51.31-58.56s-24-8-51-1c-24.84,6.44-41.22,23-43.68,25.65a7.93,7.93,0,0,0-.59.71c-1.9,2.52-13.41,18-20.73,32.78-7.66,15.45-7.07,58.9-7,62.61,0,.17,0,.32,0,.49a31,31,0,0,0,1,5.76,37.75,37.75,0,0,0,4,9c1.43,2.65,2.62,6.1,5,13,1.54,4.46,3.29,10.06,4.91,16.64a6.1,6.1,0,0,1,.14.72,64.48,64.48,0,0,0,5.95,18.64,67,67,0,0,0,27,28s31,21,76,5,56-69,56-69S438.93,339.85,423.24,292.41Zm-28.06,33.14q-.17.29-.3.57c-1.32,2.73-10.59,21.89-13.81,27.13-2.71,4.4-1.6,6.43-1,7.12a7.94,7.94,0,0,1,.74.89c2.29,3.32,13.45,19.47,21.71,31.51s-7.67,10.66-11.34,10.21a8.21,8.21,0,0,1-1.31-.26c-3.25-.93-19.16-5.44-26.67-7.28a8.08,8.08,0,0,1-1.73-.61c-5.3-2.74-8.53,2.51-8.53,2.51s-10.54,14.09-21,29.54a8.74,8.74,0,0,1-1.72,1.87c-9.94,7.92-11.11-6.45-11.11-6.45S315.73,393,315.51,387c-.18-5-4.55-6.46-6-6.81a7.46,7.46,0,0,1-1.05-.31L278,368.26a8.18,8.18,0,0,1-4.53-4c-2.68-5.55,4.55-8.14,4.55-8.14s28.32-12.78,32.61-15a4.46,4.46,0,0,0,2.43-5.54,8.93,8.93,0,0,1-.35-2.47c0-5.43.05-24.7-1.06-39.52a8.56,8.56,0,0,1,0-1.34c1.48-15.85,13.26-2.5,13.26-2.5s23.83,29,26.59,31.74,5.45,1.36,5.45,1.36,8-1.91,29.13-9.36C405.8,306.51,396.51,323.28,395.18,325.55Z" style="fill:#febd00"/><path d="M1476.43,402.2s10.15,69.26,65.23,92.88,95.17-1.52,95.17-1.52a87.68,87.68,0,0,0,16.58-11.15c6.46-5.52,12.65-12.58,19-23.3,12.45-21.05,18.15-47,19.1-51.35,5.19-24.11,10.84-50.29,6.18-85a207.4,207.4,0,0,0-23.22-71s-19.93-25.68-53.15-36.49-63.71-2-63.71-2-45.21,12.07-68,72.39S1476.43,402.2,1476.43,402.2Zm92.93-108.85c1.5-1.85,10.07-12.1,23.19-12.37,14.46-.3,28.66,11.63,32.47,29.38a146.74,146.74,0,0,1,4.64,34c.66,37-13,65.49-21.64,80.4-1.26,1.58-12.11,14.76-27.83,13.91-16.2-.86-31.18-16.27-32.47-37.1a122.19,122.19,0,0,1,0-66.49A120.24,120.24,0,0,1,1569.36,293.35Z" style="fill:#0cacb3"/><path d="M423.93,212.85l5,51a135.51,135.51,0,0,0,3.14,15.61,235.51,235.51,0,0,1,8.86,53.39c1,25-1,55,2,86s4,45,4,45-2,13,10,12,109-15,109-15,10,0,10-7-1-42-1-42,1-10-8-8-69,13-69,13-5,5-5-8-1-134-1-134l-1-75s1-12-10-10-51,13-51,13A8.86,8.86,0,0,0,423.93,212.85Z" style="fill:#96c504"/><path d="M529.93,232.85s72-26,89-31,18-6,21,5,7,31,8,34,4,15-2,16-55,12-55,12-7,1-6,5,7,32,7,32-.74,5,5.13,4,33.87-9,39.87-10,13-3,14,4,4,28,4,33,2,8-10,10-35,7-35,7-8-1-6,6,8,35,8,35-1,8,6,6,45-13,53-14,11-4,13,10,3,34,3,34,4,10-5,12-73.06,13.33-73.06,13.33-22.11,5.33-22.53,0-2.41-50.33-2.41-50.33-2-11-10-11l-9,1s-5,2-6-4-32-147-32-147S523.93,236.85,529.93,232.85Z" style="fill:#6f2495"/><path d="M675.93,185.85s86-8,148-10c2.49,0,4.29.43,5.56,1.51,4.91,4.18,5.4,13.18.44,53.49-.41,3.37-.76,6.14-1,8a5.27,5.27,0,0,1-1,3,5.35,5.35,0,0,1-3,2h-12c-5.12-.4-9.25-.76-12-1-6.75-.59-9.12-.85-13-1-4.29-.16-7.78-.09-10,0h-4c-1.23-.41-1.75-.24-2,0-.47.45-.15,1.3,0,3,.08,1,0,2,0,3v8c-.42,9.37-.9,23.2-1,40-.06,9.45,0,15.63,1,55,1,38.77,1.44,58.28,2,64,1,10.31,1.18,20.68,2,31,1.53,19.26,2.45,23.91-1,28-3.7,4.38-8.26,2.09-34,4-21.68,1.6-28.94,1.84-33-3-2-2.33-2.29-5-2-16,.22-8.29.75-18.8,2-31q2-22.5,4-45c1.36-17,2.35-30.82,3-40,1.31-18.67,2.87-37.32,4-56,.19-3.16.7-11.68,2-23,.72-6.31,1.47-11.51,2-15a7.47,7.47,0,0,0-2-5c-2.43-2.33-6.3-1.67-11-1-6,.85-12,1.26-18,2-2.43.3-11.91,1.4-18-1a7.61,7.61,0,0,1-3-2c-2.13-2.38-2-5.64-2-7,.18-7-.09-14,0-21,.11-9.11.17-13.66,0-16a21.45,21.45,0,0,1,0-3c.16-3.53.77-4.63,1-5a6.17,6.17,0,0,1,2-2" style="fill:#1080e5"/><path d="M1004.93,466.85c-20-10-48-38-61-54s-33-49-36-54,1-3,1-3,50-12,71-44,17-61-3-87-71-31-71-31l-40,1-15,4-4,11c-3.4,14.61-7.53,32.88-12,54-5,23.77-8.52,41.75-9.34,46-4.67,24.17-10.61,57.24-16.66,98l-3,25c-.65,7.75-1.42,13.88-2,18-.85,6.07-1.5,9.41.54,12.21s6.11,3.62,8.46,3.79c5,.53,15,1.51,25,2h11c5,0,7.49,0,9-1,3.48-2.25,4-7.48,4-11l4-64s0-12,2-6c5,14,27,49,40,70s43,47,47,50,7,2,18-2,35-27,35-27S1013.93,473.85,1004.93,466.85Zm-131-150,14-75a6.09,6.09,0,0,1,1.46-2.62c2.47-2.55,6.87-2.06,10.54-1.38,13.41,2.48,22.7,4.14,30,13a33.94,33.94,0,0,1,6,11,18.09,18.09,0,0,1,1,7,17.77,17.77,0,0,1-1,5,59.76,59.76,0,0,1-3,9,62.31,62.31,0,0,1-10,16c-13.88,16-29.31,15.1-47,21C872.93,320.85,873.93,316.85,873.93,316.85Z" style="fill:#f94277"/><path d="M1459.79,457.58c-1.43-10.66-20.82-149.17-24.56-169.62s-2-22.17-10.55-23.29-40.35-5.55-40.35-5.55-10.24-3.83-14.06,9.33c0,0-38,97.11-55.11,152.36,0,0-9.11,17.43,4.57,21.35a170.12,170.12,0,0,0,27.44,5.19s6.81,2.84,8.71-3.29,10.35-31,10.35-31,.11-4.06,5.28-3.91,32.65,3.56,32.65,3.56,4.33-.76,4.11,7.19,1.47,39.84,1.47,39.84.74,4.45,6.74,5.5,35.24,3.64,35.24,3.64S1461.21,468.23,1459.79,457.58Zm-55-112.22s1,9.21,1.7,15.85a3.78,3.78,0,0,1-.72,3.05c-2.11,2.16-33.29-2.87-34.12-4.39-.71-1.29,0-4,0-4h0q7.14-16.45,14.3-32.89c1.23-2.47,2.45-4.95,3.68-7.45s2.55-5.21,3.8-7.8c3.61-5.87,5.27,1.41,5.27,1.41s2.89,15,3.34,16.56S1404.77,345.36,1404.77,345.36Z" style="fill:#febd00"/><path d="M1143.22,419.8c-3-11-42.19-153.34-48.89-174.24s-5.09-22.94-14.23-22.95-43-.3-43-.3-11.24-2.6-13.43,11.7c0,0-26.58,106.88-36.89,167.05,0,0-7.16,19.5,7.7,21.74a180,180,0,0,0,29.44,1.68s7.52,2,8.67-4.64,6.6-33.9,6.6-33.9-.44-4.26,5-4.82,34.68-.72,34.68-.72,4.43-1.39,5.28,7,7,41.51,7,41.51,1.38,4.55,7.81,4.83,37.39-1,37.39-1S1146.17,430.76,1143.22,419.8Zm-73-110s2.31,9.5,4,16.35a4,4,0,0,1-.34,3.3c-1.91,2.54-35.24,1.54-36.32.06-.92-1.25-.57-4.22-.57-4.22h0q5.25-18.19,10.48-36.39,1.42-4.12,2.84-8.3c1-2.91,2-5.8,2.91-8.69,3-6.64,5.72.75,5.72.75s5.07,15.37,5.76,16.89S1070.27,309.83,1070.27,309.83Z" style="fill:#f96e21"/><path d="M1705.93,238.85s34-5,43-5,12,5,12,9-49,10.79-55,8.9S1695.93,242.85,1705.93,238.85Z" style="fill:#6a2097"/><path d="M1681.87,212.38s30.22-24.88,38.92-30.34,14.26-3,16.39.34,3,11.13-2.85,14.78-38.79,24.1-45.6,26.14S1674.33,221.84,1681.87,212.38Z" style="fill:#6a2097"/><path d="M1667,200.87s17.35-30.65,20.71-39.25-.17-13.28-3.9-14.74-11.36-1.14-13.6,4.59-14.75,38.28-15.22,44.7S1659.58,209,1667,200.87Z" style="fill:#6a2097"/><path d="M1205.93,333.85a85.27,85.27,0,0,1,3-17c2.8-10.48,6-22.24,16-32,3.49-3.39,10.58-10.09,22-12,2.16-.36,17.22-2.89,26,5l10,9c2.51,2.37,3.87,3.73,6,4,3.68.47,6.78-2.6,9-5,22-23.75,22.27-28.56,22-31a18.89,18.89,0,0,0-3-8c-12.76-20.74-46.93-25.37-52-26-8.43-1-34.14-3.89-60,10-49,26.3-54.29,88.84-55,102-.69,12.62-4,58,27,91a96.42,96.42,0,0,0,25,19c2.51,1,5.2,2,8.07,2.85,1.33.42,2.64.8,3.93,1.15,1.3-.13,3.16-.12,4,1,1.2,1.58-.52,4.12-2,9-1.43,4.72-2.72,9-1,12,.47.81,2.34,3.59,9,4a16.15,16.15,0,0,1,9,2c2.38,1.39,2.87,2.63,3,3a5.11,5.11,0,0,1-1,5c-3.62,3.62-14.72-1.41-16-2-3-1.39-3.52-2.15-5-2-4.5.44-9.22,8.27-8,14,1.86,8.72,17.7,13.57,30,12,3.46-.44,17.34-2.21,23-14,4.42-9.2,1.63-20.34-3-25-3.93-4-7-5-7-5-2.35-.8-3.91-.61-5-2a5.32,5.32,0,0,1,0-6c1.64-2.22,5-1.87,9-2,3.7-.12,7.8-1.08,16-3a65.4,65.4,0,0,0,19-8c9-5.3,15.38-9.05,16-15,.24-2.33-1.84-6.22-6-14s-4-6.08-7-12a59.74,59.74,0,0,0-7-11c-1.28-1.58-2.38-2.76-4-3-2.79-.41-5.16,2.27-7,4,0,0-3.62,3.4-15,8-10.5,4.25-22-.21-24-1C1211.71,387.21,1204.64,354.2,1205.93,333.85Z" style="fill:#1b1464"/><text transform="matrix(0.76, -0.13, 0.17, 0.99, 341.87, 160.25)" style="font-size:98.79814910888672px;fill:#1080e5;font-family:SuperJumbo, Super Jumbo">C</text><text transform="matrix(0.76, -0.11, 0.15, 0.99, 398.68, 150.58)" style="font-size:98.79814910888672px;fill:#1080e5;font-family:SuperJumbo, Super Jumbo">O</text><text transform="matrix(0.77, -0.09, 0.12, 0.99, 457.69, 141.97)" style="font-size:98.79814910888672px;fill:#1080e5;font-family:SuperJumbo, Super Jumbo">N</text><text transform="matrix(0.77, -0.08, 0.1, 0.99, 518.72, 134.53)" style="font-size:98.79814910888672px;fill:#1080e5;font-family:SuperJumbo, Super Jumbo">C</text><text transform="matrix(0.77, -0.06, 0.08, 1, 576.11, 128.82)" style="font-size:98.79814910888672px;fill:#1080e5;font-family:SuperJumbo, Super Jumbo">U</text><text transform="matrix(0.77, -0.04, 0.06, 1, 633.26, 124.36)" style="font-size:98.79814910888672px;fill:#1080e5;font-family:SuperJumbo, Super Jumbo">R</text><text transform="matrix(0.77, -0.03, 0.04, 1, 689.39, 121.16)" style="font-size:98.79814910888672px;fill:#1080e5;font-family:SuperJumbo, Super Jumbo">S</text><text transform="matrix(0.77, -0.01, 0.02, 1, 745.36, 119.12)" style="font-size:98.79814910888672px;fill:#1080e5;font-family:SuperJumbo, Super Jumbo">O</text><text transform="matrix(0.77, 0, 0, 1, 805.11, 118.41)" style="font-size:98.79814910888672px;fill:#1080e5;font-family:SuperJumbo, Super Jumbo"> </text><text transform="matrix(0.77, 0.01, -0.02, 1, 828.85, 118.32)" style="font-size:98.79814910888672px;fill:#1080e5;font-family:SuperJumbo, Super Jumbo">N</text><text transform="matrix(0.77, 0.03, -0.04, 1, 890.3, 119.46)" style="font-size:98.79814910888672px;fill:#1080e5;font-family:SuperJumbo, Super Jumbo">A</text><text transform="matrix(0.77, 0.05, -0.07, 1, 950.39, 122.03)" style="font-size:98.79814910888672px;fill:#1080e5;font-family:SuperJumbo, Super Jumbo">C</text><text transform="matrix(0.77, 0.06, -0.08, 1, 1007.99, 125.99)" style="font-size:98.79814910888672px;fill:#1080e5;font-family:SuperJumbo, Super Jumbo">I</text><text transform="matrix(0.77, 0.08, -0.1, 0.99, 1036.97, 128.32)" style="font-size:98.79814910888672px;fill:#1080e5;font-family:SuperJumbo, Super Jumbo">O</text><text transform="matrix(0.77, 0.1, -0.13, 0.99, 1096.22, 134.45)" style="font-size:98.79814910888672px;fill:#1080e5;font-family:SuperJumbo, Super Jumbo">N</text><text transform="matrix(0.76, 0.12, -0.16, 0.99, 1157.12, 142.4)" style="font-size:98.79814910888672px;fill:#1080e5;font-family:SuperJumbo, Super Jumbo">A</text><text transform="matrix(0.76, 0.14, -0.18, 0.98, 1216.48, 151.83)" style="font-size:98.79814910888672px;fill:#1080e5;font-family:SuperJumbo, Super Jumbo">L</text><text transform="matrix(0.76, 0.15, -0.2, 0.98, 1268.97, 161.66)" style="font-size:98.79814910888672px;fill:#1080e5;font-family:SuperJumbo, Super Jumbo"> </text><text transform="matrix(0.75, 0.17, -0.22, 0.98, 1292.19, 166.21)" style="font-size:98.79814910888672px;fill:#1080e5;font-family:SuperJumbo, Super Jumbo">D</text><text transform="matrix(0.75, 0.19, -0.25, 0.97, 1353.11, 180)" style="font-size:98.79814910888672px;fill:#1080e5;font-family:SuperJumbo, Super Jumbo">E</text><text transform="translate(1348.33 262.11) rotate(11.27)" style="font-size:149.35816955566406px;fill:#febd00;font-family:SuperJumbo, Super Jumbo">~</text><path d="M86.65,141.55S55.61,103.84,48.79,93,45,75.19,49.21,72.53s13.9-3.68,18.44,3.56S97.74,124.5,100.28,133,98.45,151,86.65,141.55Z" style="fill:#6a2097"/><path d="M68.29,164.56S30,142.9,19.31,138.71s-16.57.22-18.39,4.87-1.43,14.18,5.72,17,47.77,18.41,55.78,19S78.39,173.87,68.29,164.56Z" style="fill:#6a2097"/><path d="M148,116.48s0-40.58-1.64-51.07-8.34-13-13.27-12.25-13,5.61-11.93,12.6,7.51,46.57,10.94,53.2S144.88,128.9,148,116.48Z" style="fill:#6a2097"/></g></g></svg>